<?xml version="1.0" encoding="UTF-8"?>
<svg id="Camada_1" data-name="Camada 1" xmlns="http://www.w3.org/2000/svg" viewBox="102 389 1649 380">
  <defs>
    <style>
      .cls-1 {
        fill: #00cc0a;
      }
    </style>
  </defs>
  <g>
    <path class="cls-1" d="M484.48,472.94l-62.65-61.44c-13.72-13.45-35.95-13.45-49.66,0l-18.68,18.32c-1.07-.18-2.2.14-3.02.95l-18.13,17.78c-.82.8-1.15,1.92-.97,2.97l-2.85,2.79c-1.07-.18-2.2.14-3.02.95l-18.13,17.78c-.3.3-.54.64-.7,1.01.04.56-.05,1.13-.3,1.66,0,.1.02.2.04.3l-1.82,1.79h0s-20.45,20.04-20.45,20.04c-1.35,1.33-3.55,1.33-4.9,0l-2.75-2.69c-1.35-1.33-1.35-3.48,0-4.8l20.45-20.06-59.93-58.77c-13.72-13.45-35.95-13.45-49.66,0l-62.65,61.44c-13.71,13.45-13.71,35.26,0,48.7l140.97,138.27c2.17,2.13,4.49,4.05,6.91,5.74l7.7,7.55c13.72,13.45,35.95,13.45,49.66,0l154.53-151.56c13.72-13.45,13.72-35.25,0-48.7ZM458.95,464.78l-2.75,2.69c-1.35,1.33-3.54,1.33-4.9,0l-21.53-21.12c-1.35-1.32-1.35-3.48,0-4.8l2.75-2.69c1.35-1.33,3.54-1.33,4.9,0l21.53,21.12c1.35,1.32,1.35,3.48,0,4.8Z"/>
    <path class="cls-1" d="M452.77,458.59c-1.49,0-2.69,1.18-2.69,2.64s1.2,2.64,2.69,2.64,2.69-1.18,2.69-2.64-1.2-2.64-2.69-2.64Z"/>
  </g>
  <g>
    <path class="cls-1" d="M613.62,676.14l-83.55-274.73h63.6l66.24,231.83-14.3-7.15h38.39l-15.05,7.15,61.34-231.83h61.72l-77.9,274.73h-100.49Z"/>
    <path class="cls-1" d="M906.42,683.29c-17.57,0-33.06-3.01-46.48-9.03-13.43-6.02-24.59-14.11-33.5-24.28-8.91-10.16-15.68-21.58-20.32-34.25-4.65-12.67-6.96-25.65-6.96-38.95v-7.53c0-13.8,2.32-27.03,6.96-39.71,4.64-12.67,11.35-24.02,20.13-34.06,8.78-10.03,19.76-18,32.93-23.9,13.17-5.89,28.16-8.84,44.97-8.84,22.08,0,40.7,4.96,55.89,14.87,15.18,9.91,26.78,22.83,34.81,38.76,8.03,15.94,12.04,33.31,12.04,52.12v20.32h-182.53v-34.25h146.02l-19.57,15.81c0-12.29-1.76-22.83-5.27-31.61-3.52-8.78-8.72-15.49-15.62-20.13-6.9-4.64-15.49-6.96-25.78-6.96s-19.45,2.39-26.72,7.15c-7.28,4.77-12.8,11.73-16.56,20.89-3.76,9.16-5.65,20.39-5.65,33.68,0,12.3,1.75,23.02,5.27,32.18,3.51,9.16,9.03,16.25,16.56,21.26,7.53,5.02,17.31,7.53,29.36,7.53,11.04,0,20.07-2.13,27.1-6.4,7.02-4.26,11.79-9.53,14.3-15.81h55.32c-3.01,13.8-8.91,26.1-17.69,36.88-8.78,10.79-19.82,19.19-33.12,25.22-13.3,6.02-28.6,9.03-45.91,9.03Z"/>
    <path class="cls-1" d="M1046.79,676.14v-206.24h47.8v88.44h-3.39c0-21.07,2.69-38.63,8.09-52.69,5.39-14.05,13.61-24.59,24.65-31.61,11.04-7.02,24.46-10.54,40.27-10.54h2.63c24.09,0,42.46,7.84,55.14,23.52,12.66,15.68,19.01,39.46,19.01,71.32v117.8h-60.22v-121.18c0-11.04-3.26-20.07-9.78-27.1-6.53-7.02-15.31-10.54-26.34-10.54s-20.39,3.57-27.29,10.73c-6.9,7.15-10.35,16.5-10.35,28.04v120.05h-60.22Z"/>
    <path class="cls-1" d="M1441.57,401.41v96.66c-6.23-9.97-14.14-17.79-23.71-23.47-12.04-7.15-26.35-10.72-42.9-10.72-14.55,0-27.72,2.69-39.52,8.08-11.79,5.4-21.89,12.93-30.29,22.59-8.41,9.66-14.8,20.88-19.2,33.67-4.39,12.8-6.59,26.61-6.59,41.41v8.65c0,14.8,2.33,28.61,6.96,41.41,4.65,12.78,11.36,23.9,20.14,33.3,8.78,9.42,19.13,16.74,31.05,22.03,11.92,5.27,25.15,7.89,39.71,7.89,16.3,0,30.72-3.57,43.28-10.72,12.54-7.15,22.51-17.62,29.92-31.43,1.44-2.69,2.76-5.49,3.95-8.41v-41.65h8.29c-.6,15.75-3.38,29.64-8.29,41.65v43.78h47.79v-274.72h-60.59ZM1443.08,579.04c0,11.29-2.32,20.95-6.96,28.97-4.65,8.05-10.79,14.12-18.44,18.25-7.65,4.15-16.12,6.21-25.41,6.21-10.04,0-19.06-2.37-27.09-7.14-8.05-4.77-14.31-11.54-18.82-20.33-4.53-8.78-6.78-19.2-6.78-31.24s2.25-22.15,6.78-31.05c4.51-8.9,10.72-15.94,18.63-21.08,7.89-5.13,16.86-7.7,26.9-7.7,9.04,0,17.45,2.01,25.22,6.02,7.77,4.01,14.05,9.78,18.82,17.31,4.77,7.53,7.15,16.81,7.15,27.84v13.93Z"/>
    <path class="cls-1" d="M1462.66,590.71c-.6,15.75-3.38,29.64-8.29,41.65v-41.65h8.29Z"/>
    <path class="cls-1" d="M1594.37,671.62l-63.23-201.72h60.59l59.84,201.72h-57.2ZM1565.77,732.22v-25.59h31.61c6.52,0,12.04-.82,16.56-2.45,4.52-1.64,8.15-4.33,10.91-8.09,2.76-3.76,5.02-8.91,6.77-15.43l50.81-210.75h57.21l-57.58,222.8c-4.02,16.05-9.6,28.85-16.75,38.39-7.15,9.53-16.69,16.37-28.6,20.51-11.92,4.14-27.04,6.21-45.35,6.21h0c-14.13,0-25.59-11.46-25.59-25.59ZM1619.21,671.62v-47.04h43.66v47.04h-43.66Z"/>
  </g>
</svg>